<?xml version="1.0" standalone="no"?>
<!DOCTYPE svg PUBLIC "-//W3C//DTD SVG 20010904//EN"
 "http://www.w3.org/TR/2001/REC-SVG-20010904/DTD/svg10.dtd">
<svg version="1.0" xmlns="http://www.w3.org/2000/svg"
 width="640.000000pt" height="640.000000pt" viewBox="0 0 640.000000 640.000000"
 preserveAspectRatio="xMidYMid meet">

<g transform="translate(0.000000,640.000000) scale(0.100000,-0.100000)"
fill="#000000" stroke="none">
<path d="M2950 5239 c-58 -34 -153 -89 -212 -123 l-108 -61 0 -637 0 -636
-282 -165 c-442 -257 -442 -257 -526 -257 -46 0 -74 4 -79 13 -4 6 -9 268 -9
580 -1 313 -4 570 -6 573 -3 2 -98 -49 -212 -115 l-208 -119 1 -1148 1 -1147
162 -95 c228 -132 242 -140 251 -141 4 -1 9 258 11 574 2 316 6 579 10 583 4
4 43 6 86 6 75 -1 82 -4 171 -54 52 -29 110 -62 129 -73 19 -10 40 -23 45 -27
6 -4 31 -19 58 -34 94 -52 135 -75 214 -123 45 -26 104 -60 132 -75 l51 -28 0
-638 0 -639 213 -121 212 -122 3 882 c2 697 -1 885 -10 894 -7 7 -98 61 -203
121 -370 212 -425 245 -430 253 -6 10 88 67 428 260 l217 124 0 888 c0 488 -1
888 -3 888 -1 0 -49 -28 -107 -61z"/>
<path d="M3510 3150 c0 -1713 3 -2150 13 -2150 10 0 343 185 405 226 l23 15
-2 837 -2 837 69 6 c38 3 234 7 436 7 289 1 369 -2 377 -12 8 -9 10 -164 8
-507 -2 -272 -2 -529 0 -572 4 -68 7 -78 21 -72 9 3 96 52 192 108 96 56 184
107 195 112 17 9 20 20 20 78 0 37 -2 554 -3 1150 l-2 1082 -206 118 c-114 65
-208 116 -210 114 -2 -2 -4 -253 -4 -558 -1 -305 -4 -566 -7 -581 l-5 -28
-438 0 -438 0 -4 43 c-2 23 -5 404 -6 847 -2 620 -5 807 -15 813 -40 25 -389
226 -402 231 -13 5 -15 -226 -15 -2144z"/>
</g>
</svg>
